<?xml version="1.0" encoding="utf-8"?>
<!-- Generator: Adobe Illustrator 26.3.1, SVG Export Plug-In . SVG Version: 6.00 Build 0)  -->
<svg version="1.1" xmlns="http://www.w3.org/2000/svg" xmlns:xlink="http://www.w3.org/1999/xlink" x="0px" y="0px"
	 viewBox="0 0 36 36" style="enable-background:new 0 0 36 36;" xml:space="preserve">
<style type="text/css">
	.st0{display:none;}
	.st1{display:none;fill:#FFFFFF;stroke:#FFFFFF;stroke-miterlimit:10;}
	.st2{fill:#777676;stroke:#777676;stroke-miterlimit:10;}
	.st3{display:none;fill:none;stroke:#E41514;stroke-miterlimit:10;}
</style>
<g id="katman_1">
	<rect x="-346.79" y="-76.79" class="st0" width="402.78" height="191.67"/>
	
		<image style="display:none;overflow:visible;" width="214" height="132" xlink:href="../Resim1.png"  transform="matrix(0.75 0 0 0.75 -220.5108 400.9673)">
	</image>
	<rect x="-104.61" y="341.82" class="st1" width="185.24" height="120.08"/>
</g>
<g id="yazı_beyaz">
	<path class="st2" d="M27.57,4.01c1.16-0.57-3.8-3.21-6.23-2.95L6.43,1.04c0,0-3.38-0.15-4,0S1.25,1.89,1.06,2.52s-0.11,1.99,0,2.27
		s0.85,2.52,2.69,2.62c0,0,6.73,0.36,8.65,0c1.92-0.36,2.36-0.62,6.03-1.83c0,0,3.21-0.85,4.85-1.11
		C24.91,4.2,26.41,4.58,27.57,4.01z"/>
	<path class="st2" d="M27.74,6.23c-1.25,0-3.09,0.52-3.09,0.52s-12.26,3.51-13.89,3.41c-2.21,0.34-5.98,0.08-6.65-0.13
		c-0.67-0.21-2.32-1.54-2.85-0.8c-0.53,0.74-0.21,4.95,0,5.62c0.21,0.67,0.78,1.46,2.19,2s6.97-0.76,7.67-0.92
		c0.7-0.16,6-1.86,8.39-2.42c9.88-3.07-0.52,1.84-1.08,2.16c-0.57,0.32-3.64,2.62-6.98,4.52c-1.93,1.38-7.03,3.1-9.54,3.88
		s-0.1,5.41,2.06,5.06c2.56,0.2,6.05,0.08,10.72-0.78c1.45-0.27,2.84-0.69,4.02-1.38c2.69-1.55,8.14-0.84,8.77-0.74
		c0.62,0.1,1.89,0.46,2.31,1.31c0.42,0.85-0.07,1.25,0.23,2.03c-0.44,1.52,6.59-2.95,4.87-5.95s-6.34-3.24-10.52-3.05
		c-4.18,0.2-9.34,2.41,0.88-3.19c6.11-3.35,8.91-2.13,9.39-3.18s0.19-1.26-0.39-4.31c0,0-0.62-2.23-2.42-3.05
		C30.02,6.04,28.99,6.23,27.74,6.23z"/>
	<path class="st2" d="M22.58,35.2c-1.02,0.13-3.87,0-3.87,0h-7.27c0,0-6.49-0.03-8.5,0c-0.77,0.01-1.3-0.61-1.57-1.39
		c-0.31-0.88-0.13-2.21,0.11-2.53s0.41-0.39,0.73-0.38c1.34,0.04,0.25,1.08,5.66,0.65c1.36-0.11,3.38-0.21,5.45-0.65
		s2.95-1.06,5.97-1.88c3.02-0.82,5.94-0.74,6.37-0.48s3.49,1.57,0.2,5.36c0,0-0.41,0.32-1.44,0.72
		C23.47,34.94,23.6,35.07,22.58,35.2z"/>
</g>
<g id="yazı_sıyah">
	<g>
		<line class="st3" x1="-190.56" y1="-12.48" x2="-190.56" y2="43.98"/>
	</g>
</g>
<g id="logo">
</g>
</svg>
